<?xml version="1.0" encoding="utf-8"?>
<!-- Generator: Adobe Illustrator 18.0.0, SVG Export Plug-In . SVG Version: 6.00 Build 0)  -->
<!DOCTYPE svg PUBLIC "-//W3C//DTD SVG 1.1//EN" "http://www.w3.org/Graphics/SVG/1.1/DTD/svg11.dtd">
<svg version="1.1" id="Calque_1" xmlns="http://www.w3.org/2000/svg" xmlns:xlink="http://www.w3.org/1999/xlink" x="0px" y="0px"
	 viewBox="-50 -91 117.8 381.9" enable-background="new -50 -91 117.8 381.9" xml:space="preserve">
	<g>
		<path d="M10.2,230.1v11.2h40.5c-0.4,4.7-1.6,8.5-2.7,12.4c-2.4,5.5-5.5,9.7-8.9,13.6c-5.1,4.7-10.9,8.5-17.9,10.5
			c-3.9,1.2-8.2,1.6-12.8,1.6c-26,0-44.7-19.9-44.7-47.1s19.1-47.1,44.7-47.1c17.9,0,33.1,8.9,40.1,27.6l12-3.9
			c-8.9-24.2-29.6-35.4-52.2-35.4c-35.8,0-58.3,27.2-58.3,58.7s22.6,58.7,58.3,58.7c19.5,0,37.8-8.5,48.3-26.8v5.1V289h11.2v-59.4
			H10.2L10.2,230.1L10.2,230.1z"/>
	</g>
	<g>
		<path d="M67.3,100.5c0,31.5-23.4,58.3-58.3,58.3s-58.3-26.8-58.3-58.3S-25.9,42.1,9,42.1S67.3,69.3,67.3,100.5z M-36.1,100.5
				c0,27.2,19.9,46.7,45.1,46.7c25.6,0,45.1-19.9,45.1-46.7c0-27.2-19.5-46.7-45.1-46.7C-16.4,54.2-36.1,73.6-36.1,100.5z"/>
	</g>
</svg>
