<?xml version="1.0" encoding="utf-8"?>
<!-- Generator: Adobe Illustrator 18.0.0, SVG Export Plug-In . SVG Version: 6.00 Build 0)  -->
<!DOCTYPE svg PUBLIC "-//W3C//DTD SVG 1.1//EN" "http://www.w3.org/Graphics/SVG/1.1/DTD/svg11.dtd">
<svg version="1.1" id="Calque_1" xmlns="http://www.w3.org/2000/svg" xmlns:xlink="http://www.w3.org/1999/xlink" x="0px" y="0px"
	 viewBox="0 0 200 200" enable-background="new 0 0 200 200" xml:space="preserve">
<path d="M22.2,121.4v2.9h10.4c-0.1,1.2-0.4,2.2-0.7,3.2c-0.6,1.4-1.4,2.5-2.3,3.5c-1.3,1.2-2.8,2.2-4.6,2.7c-1,0.3-2.1,0.4-3.3,0.4
	c-6.7,0-11.5-5.1-11.5-12.1c0-7,4.9-12.1,11.5-12.1c4.6,0,8.5,2.3,10.3,7.1l3.1-1c-2.3-6.2-7.6-9.1-13.4-9.1c-9.2,0-15,7-15,15.1
	s5.8,15.1,15,15.1c5,0,9.7-2.2,12.4-6.9v1.3v5.1H37v-15.3H22.2z"/>
<g>
	<g>
		<path d="M36.9,88.1c0,8.1-6,15-15,15c-9,0-15-6.9-15-15c0-8.1,6-15,15-15C30.9,73.1,36.9,80.1,36.9,88.1z M10.3,88.1
			c0,7,5.1,12,11.6,12c6.6,0,11.6-5.1,11.6-12c0-7-5-12-11.6-12C15.4,76.2,10.3,81.2,10.3,88.1z"/>
	</g>
</g>
<path d="M68.9,53.5v2.9h10.5c-0.1,1.2-0.4,2.2-0.7,3.2c-0.6,1.4-1.4,2.5-2.3,3.5c-1.3,1.2-2.8,2.2-4.6,2.7c-1,0.3-2.1,0.4-3.3,0.4
	c-6.7,0-11.5-5.1-11.5-12.1c0-7,4.9-12.1,11.5-12.1c4.6,0,8.5,2.3,10.3,7.1l3.1-1c-2.3-6.2-7.6-9.1-13.4-9.1c-9.2,0-15,7-15,15.1
	s5.8,15.1,15,15.1c5,0,9.7-2.2,12.4-6.9v1.3v5.1h2.9V53.5H68.9z"/>
<path d="M42.7,39.8h3.6v28.9h-3.6V39.8z"/>
<path d="M9.5,39.8H20c10.1,0,15.3,5.7,15.3,14.4S30.2,68.7,20,68.7H9.5V39.8z M13.1,43v22.5h6.7c8,0,11.8-4.1,11.8-11.2
	c0-7.1-3.8-11.2-11.8-11.2L13.1,43L13.1,43z"/>
</svg>
